<svg width="535" height="88" viewBox="0 0 535 88" fill="none" xmlns="http://www.w3.org/2000/svg">
<path d="M86.0227 41V17.7273H95.3409C97.053 17.7273 98.4811 17.9811 99.625 18.4886C100.769 18.9962 101.629 19.7008 102.205 20.6023C102.78 21.4962 103.068 22.5265 103.068 23.6932C103.068 24.6023 102.886 25.4015 102.523 26.0909C102.159 26.7727 101.659 27.3333 101.023 27.7727C100.394 28.2045 99.6742 28.5114 98.8636 28.6932V28.9205C99.75 28.9583 100.58 29.2083 101.352 29.6705C102.133 30.1326 102.765 30.7803 103.25 31.6136C103.735 32.4394 103.977 33.4242 103.977 34.5682C103.977 35.803 103.67 36.9053 103.057 37.875C102.451 38.8371 101.553 39.5985 100.364 40.1591C99.1742 40.7197 97.7083 41 95.9659 41H86.0227ZM90.9432 36.9773H94.9545C96.3258 36.9773 97.3258 36.7159 97.9545 36.1932C98.5833 35.6629 98.8977 34.9583 98.8977 34.0795C98.8977 33.4356 98.7424 32.8674 98.4318 32.375C98.1212 31.8826 97.678 31.4962 97.1023 31.2159C96.5341 30.9356 95.8561 30.7955 95.0682 30.7955H90.9432V36.9773ZM90.9432 27.4659H94.5909C95.2652 27.4659 95.8636 27.3485 96.3864 27.1136C96.9167 26.8712 97.3333 26.5303 97.6364 26.0909C97.947 25.6515 98.1023 25.125 98.1023 24.5114C98.1023 23.6705 97.803 22.9924 97.2045 22.4773C96.6136 21.9621 95.7727 21.7045 94.6818 21.7045H90.9432V27.4659ZM115.043 41.3409C113.247 41.3409 111.702 40.9773 110.406 40.25C109.118 39.5152 108.126 38.4773 107.429 37.1364C106.732 35.7879 106.384 34.1932 106.384 32.3523C106.384 30.5568 106.732 28.9811 107.429 27.625C108.126 26.2689 109.107 25.2121 110.372 24.4545C111.645 23.697 113.137 23.3182 114.849 23.3182C116.001 23.3182 117.073 23.5038 118.065 23.875C119.065 24.2386 119.937 24.7879 120.679 25.5227C121.429 26.2576 122.012 27.1818 122.429 28.2955C122.846 29.4015 123.054 30.697 123.054 32.1818V33.5114H108.315V30.5114H118.497C118.497 29.8144 118.346 29.197 118.043 28.6591C117.74 28.1212 117.319 27.7008 116.781 27.3977C116.251 27.0871 115.634 26.9318 114.929 26.9318C114.194 26.9318 113.543 27.1023 112.974 27.4432C112.414 27.7765 111.974 28.2273 111.656 28.7955C111.338 29.3561 111.175 29.9811 111.168 30.6705V33.5227C111.168 34.3864 111.327 35.1326 111.645 35.7614C111.971 36.3902 112.429 36.875 113.02 37.2159C113.611 37.5568 114.312 37.7273 115.122 37.7273C115.66 37.7273 116.152 37.6515 116.599 37.5C117.046 37.3485 117.429 37.1212 117.747 36.8182C118.065 36.5152 118.308 36.1439 118.474 35.7045L122.952 36C122.724 37.0758 122.259 38.0152 121.554 38.8182C120.857 39.6136 119.955 40.2348 118.849 40.6818C117.751 41.1212 116.482 41.3409 115.043 41.3409ZM135.497 23.5455V27.1818H124.986V23.5455H135.497ZM127.372 19.3636H132.213V35.6364C132.213 36.0833 132.281 36.4318 132.418 36.6818C132.554 36.9242 132.743 37.0947 132.986 37.1932C133.236 37.2917 133.524 37.3409 133.849 37.3409C134.077 37.3409 134.304 37.322 134.531 37.2841C134.759 37.2386 134.933 37.2045 135.054 37.1818L135.815 40.7841C135.573 40.8598 135.232 40.947 134.793 41.0455C134.353 41.1515 133.819 41.2159 133.19 41.2386C132.024 41.2841 131.001 41.1288 130.122 40.7727C129.251 40.4167 128.573 39.8636 128.088 39.1136C127.603 38.3636 127.365 37.4167 127.372 36.2727V19.3636ZM148.037 23.5455V27.1818H137.264V23.5455H148.037ZM139.73 41V22.2841C139.73 21.0189 139.976 19.9697 140.469 19.1364C140.969 18.303 141.651 17.678 142.514 17.2614C143.378 16.8447 144.359 16.6364 145.457 16.6364C146.2 16.6364 146.878 16.6932 147.491 16.8068C148.113 16.9205 148.575 17.0227 148.878 17.1136L148.014 20.75C147.825 20.6894 147.59 20.6326 147.31 20.5795C147.037 20.5265 146.757 20.5 146.469 20.5C145.757 20.5 145.26 20.6667 144.98 21C144.7 21.3258 144.56 21.7841 144.56 22.375V41H139.73ZM150.994 41V23.5455H155.688V26.5909H155.869C156.188 25.5076 156.722 24.6894 157.472 24.1364C158.222 23.5758 159.085 23.2955 160.062 23.2955C160.305 23.2955 160.566 23.3106 160.847 23.3409C161.127 23.3712 161.373 23.4129 161.585 23.4659V27.7614C161.358 27.6932 161.044 27.6326 160.642 27.5795C160.241 27.5265 159.873 27.5 159.54 27.5C158.828 27.5 158.191 27.6553 157.631 27.9659C157.078 28.2689 156.638 28.6932 156.312 29.2386C155.994 29.7841 155.835 30.4129 155.835 31.125V41H150.994ZM171.23 41.3409C169.435 41.3409 167.889 40.9773 166.594 40.25C165.306 39.5152 164.313 38.4773 163.616 37.1364C162.92 35.7879 162.571 34.1932 162.571 32.3523C162.571 30.5568 162.92 28.9811 163.616 27.625C164.313 26.2689 165.295 25.2121 166.56 24.4545C167.832 23.697 169.325 23.3182 171.037 23.3182C172.188 23.3182 173.26 23.5038 174.253 23.875C175.253 24.2386 176.124 24.7879 176.866 25.5227C177.616 26.2576 178.2 27.1818 178.616 28.2955C179.033 29.4015 179.241 30.697 179.241 32.1818V33.5114H164.503V30.5114H174.685C174.685 29.8144 174.533 29.197 174.23 28.6591C173.927 28.1212 173.507 27.7008 172.969 27.3977C172.438 27.0871 171.821 26.9318 171.116 26.9318C170.382 26.9318 169.73 27.1023 169.162 27.4432C168.601 27.7765 168.162 28.2273 167.844 28.7955C167.526 29.3561 167.363 29.9811 167.355 30.6705V33.5227C167.355 34.3864 167.514 35.1326 167.832 35.7614C168.158 36.3902 168.616 36.875 169.207 37.2159C169.798 37.5568 170.499 37.7273 171.31 37.7273C171.848 37.7273 172.34 37.6515 172.787 37.5C173.234 37.3485 173.616 37.1212 173.935 36.8182C174.253 36.5152 174.495 36.1439 174.662 35.7045L179.139 36C178.912 37.0758 178.446 38.0152 177.741 38.8182C177.045 39.6136 176.143 40.2348 175.037 40.6818C173.938 41.1212 172.67 41.3409 171.23 41.3409ZM190.355 41.3409C188.56 41.3409 187.014 40.9773 185.719 40.25C184.431 39.5152 183.438 38.4773 182.741 37.1364C182.045 35.7879 181.696 34.1932 181.696 32.3523C181.696 30.5568 182.045 28.9811 182.741 27.625C183.438 26.2689 184.42 25.2121 185.685 24.4545C186.957 23.697 188.45 23.3182 190.162 23.3182C191.313 23.3182 192.385 23.5038 193.378 23.875C194.378 24.2386 195.249 24.7879 195.991 25.5227C196.741 26.2576 197.325 27.1818 197.741 28.2955C198.158 29.4015 198.366 30.697 198.366 32.1818V33.5114H183.628V30.5114H193.81C193.81 29.8144 193.658 29.197 193.355 28.6591C193.052 28.1212 192.632 27.7008 192.094 27.3977C191.563 27.0871 190.946 26.9318 190.241 26.9318C189.507 26.9318 188.855 27.1023 188.287 27.4432C187.726 27.7765 187.287 28.2273 186.969 28.7955C186.651 29.3561 186.488 29.9811 186.48 30.6705V33.5227C186.48 34.3864 186.639 35.1326 186.957 35.7614C187.283 36.3902 187.741 36.875 188.332 37.2159C188.923 37.5568 189.624 37.7273 190.435 37.7273C190.973 37.7273 191.465 37.6515 191.912 37.5C192.359 37.3485 192.741 37.1212 193.06 36.8182C193.378 36.5152 193.62 36.1439 193.787 35.7045L198.264 36C198.037 37.0758 197.571 38.0152 196.866 38.8182C196.17 39.6136 195.268 40.2348 194.162 40.6818C193.063 41.1212 191.795 41.3409 190.355 41.3409ZM209.023 41V17.7273H213.943V27.3295H223.932V17.7273H228.841V41H223.932V31.3864H213.943V41H209.023ZM237.784 41.3295C236.67 41.3295 235.678 41.1364 234.807 40.75C233.936 40.3561 233.246 39.7765 232.739 39.0114C232.239 38.2386 231.989 37.2765 231.989 36.125C231.989 35.1553 232.167 34.3409 232.523 33.6818C232.879 33.0227 233.364 32.4924 233.977 32.0909C234.591 31.6894 235.288 31.3864 236.068 31.1818C236.856 30.9773 237.682 30.8333 238.545 30.75C239.561 30.6439 240.379 30.5455 241 30.4545C241.621 30.3561 242.072 30.2121 242.352 30.0227C242.633 29.8333 242.773 29.553 242.773 29.1818V29.1136C242.773 28.3939 242.545 27.8371 242.091 27.4432C241.644 27.0492 241.008 26.8523 240.182 26.8523C239.311 26.8523 238.617 27.0455 238.102 27.4318C237.587 27.8106 237.246 28.2879 237.08 28.8636L232.602 28.5C232.83 27.4394 233.277 26.5227 233.943 25.75C234.61 24.9697 235.47 24.3712 236.523 23.9545C237.583 23.5303 238.811 23.3182 240.205 23.3182C241.174 23.3182 242.102 23.4318 242.989 23.6591C243.883 23.8864 244.674 24.2386 245.364 24.7159C246.061 25.1932 246.61 25.8068 247.011 26.5568C247.413 27.2992 247.614 28.1894 247.614 29.2273V41H243.023V38.5795H242.886C242.606 39.125 242.231 39.6061 241.761 40.0227C241.292 40.4318 240.727 40.7538 240.068 40.9886C239.409 41.2159 238.648 41.3295 237.784 41.3295ZM239.17 37.9886C239.883 37.9886 240.511 37.8485 241.057 37.5682C241.602 37.2803 242.03 36.8939 242.341 36.4091C242.652 35.9242 242.807 35.375 242.807 34.7614V32.9091C242.655 33.0076 242.447 33.0985 242.182 33.1818C241.924 33.2576 241.633 33.3295 241.307 33.3977C240.981 33.4583 240.655 33.5152 240.33 33.5682C240.004 33.6136 239.708 33.6553 239.443 33.6932C238.875 33.7765 238.379 33.9091 237.955 34.0909C237.53 34.2727 237.201 34.5189 236.966 34.8295C236.731 35.1326 236.614 35.5114 236.614 35.9659C236.614 36.625 236.852 37.1288 237.33 37.4773C237.814 37.8182 238.428 37.9886 239.17 37.9886ZM267.017 23.5455L260.915 41H255.46L249.358 23.5455H254.472L258.097 36.0341H258.278L261.892 23.5455H267.017ZM276.886 41.3409C275.091 41.3409 273.545 40.9773 272.25 40.25C270.962 39.5152 269.97 38.4773 269.273 37.1364C268.576 35.7879 268.227 34.1932 268.227 32.3523C268.227 30.5568 268.576 28.9811 269.273 27.625C269.97 26.2689 270.951 25.2121 272.216 24.4545C273.489 23.697 274.981 23.3182 276.693 23.3182C277.845 23.3182 278.917 23.5038 279.909 23.875C280.909 24.2386 281.78 24.7879 282.523 25.5227C283.273 26.2576 283.856 27.1818 284.273 28.2955C284.689 29.4015 284.898 30.697 284.898 32.1818V33.5114H270.159V30.5114H280.341C280.341 29.8144 280.189 29.197 279.886 28.6591C279.583 28.1212 279.163 27.7008 278.625 27.3977C278.095 27.0871 277.477 26.9318 276.773 26.9318C276.038 26.9318 275.386 27.1023 274.818 27.4432C274.258 27.7765 273.818 28.2273 273.5 28.7955C273.182 29.3561 273.019 29.9811 273.011 30.6705V33.5227C273.011 34.3864 273.17 35.1326 273.489 35.7614C273.814 36.3902 274.273 36.875 274.864 37.2159C275.455 37.5568 276.155 37.7273 276.966 37.7273C277.504 37.7273 277.996 37.6515 278.443 37.5C278.89 37.3485 279.273 37.1212 279.591 36.8182C279.909 36.5152 280.152 36.1439 280.318 35.7045L284.795 36C284.568 37.0758 284.102 38.0152 283.398 38.8182C282.701 39.6136 281.799 40.2348 280.693 40.6818C279.595 41.1212 278.326 41.3409 276.886 41.3409ZM292.898 30.9091V41H288.057V23.5455H292.67V26.625H292.875C293.261 25.6098 293.909 24.8068 294.818 24.2159C295.727 23.6174 296.83 23.3182 298.125 23.3182C299.337 23.3182 300.394 23.5833 301.295 24.1136C302.197 24.6439 302.898 25.4015 303.398 26.3864C303.898 27.3636 304.148 28.5303 304.148 29.8864V41H299.307V30.75C299.314 29.6818 299.042 28.8485 298.489 28.25C297.936 27.6439 297.174 27.3409 296.205 27.3409C295.553 27.3409 294.977 27.4811 294.477 27.7614C293.985 28.0417 293.598 28.4508 293.318 28.9886C293.045 29.5189 292.905 30.1591 292.898 30.9091Z" fill="black"/>
<path d="M119.918 72V54.5455H126.31C127.548 54.5455 128.574 54.75 129.386 55.1591C130.199 55.5625 130.807 56.1108 131.21 56.804C131.614 57.4915 131.815 58.267 131.815 59.1307C131.815 59.858 131.682 60.4716 131.415 60.9716C131.148 61.4659 130.79 61.8636 130.341 62.1648C129.898 62.4602 129.409 62.6761 128.875 62.8125V62.983C129.455 63.0114 130.02 63.1989 130.571 63.5455C131.128 63.8864 131.588 64.3722 131.952 65.0028C132.315 65.6335 132.497 66.4006 132.497 67.304C132.497 68.196 132.287 68.9972 131.866 69.7074C131.452 70.4119 130.81 70.9716 129.94 71.3864C129.071 71.7955 127.96 72 126.608 72H119.918ZM122.551 69.7415H126.352C127.614 69.7415 128.517 69.4972 129.062 69.0085C129.608 68.5199 129.881 67.9091 129.881 67.1761C129.881 66.625 129.741 66.1193 129.463 65.6591C129.185 65.1989 128.787 64.8324 128.27 64.5597C127.759 64.2869 127.151 64.1506 126.446 64.1506H122.551V69.7415ZM122.551 62.0966H126.08C126.67 62.0966 127.202 61.983 127.673 61.7557C128.151 61.5284 128.528 61.2102 128.807 60.8011C129.091 60.3864 129.233 59.8977 129.233 59.3352C129.233 58.6136 128.98 58.0085 128.474 57.5199C127.969 57.0312 127.193 56.7869 126.148 56.7869H122.551V62.0966ZM135.416 72V58.9091H137.879V60.9886H138.016C138.254 60.2841 138.675 59.7301 139.277 59.3267C139.885 58.9176 140.572 58.7131 141.339 58.7131C141.499 58.7131 141.686 58.7187 141.902 58.7301C142.124 58.7415 142.297 58.7557 142.422 58.7727V61.2102C142.32 61.1818 142.138 61.1506 141.876 61.1165C141.615 61.0767 141.354 61.0568 141.092 61.0568C140.49 61.0568 139.953 61.1847 139.482 61.4403C139.016 61.6903 138.646 62.0398 138.374 62.4886C138.101 62.9318 137.964 63.4375 137.964 64.0057V72H135.416ZM149.8 72.2642C148.511 72.2642 147.4 71.9886 146.468 71.4375C145.542 70.8807 144.826 70.0994 144.32 69.0938C143.82 68.0824 143.57 66.8977 143.57 65.5398C143.57 64.1989 143.82 63.017 144.32 61.9943C144.826 60.9716 145.531 60.1733 146.434 59.5994C147.343 59.0256 148.406 58.7386 149.621 58.7386C150.36 58.7386 151.076 58.8608 151.769 59.1051C152.462 59.3494 153.085 59.733 153.636 60.2557C154.187 60.7784 154.621 61.4574 154.94 62.2926C155.258 63.1222 155.417 64.1307 155.417 65.3182V66.2216H145.011V64.3125H152.92C152.92 63.642 152.783 63.0483 152.511 62.5312C152.238 62.0085 151.854 61.5966 151.36 61.2955C150.871 60.9943 150.298 60.8438 149.638 60.8438C148.923 60.8438 148.298 61.0199 147.763 61.3722C147.235 61.7187 146.826 62.1733 146.536 62.7358C146.252 63.2926 146.11 63.8977 146.11 64.5511V66.0426C146.11 66.9176 146.263 67.6619 146.57 68.2756C146.883 68.8892 147.317 69.358 147.874 69.6818C148.431 70 149.082 70.1591 149.826 70.1591C150.309 70.1591 150.749 70.0909 151.147 69.9545C151.545 69.8125 151.888 69.6023 152.178 69.3239C152.468 69.0455 152.69 68.7017 152.843 68.2926L155.255 68.7273C155.062 69.4375 154.715 70.0597 154.215 70.5938C153.721 71.1222 153.099 71.5341 152.349 71.8295C151.604 72.1193 150.755 72.2642 149.8 72.2642ZM162.054 72.2898C161.224 72.2898 160.474 72.1364 159.804 71.8295C159.134 71.517 158.602 71.0653 158.21 70.4744C157.824 69.8835 157.631 69.1591 157.631 68.3011C157.631 67.5625 157.773 66.9545 158.057 66.4773C158.341 66 158.724 65.6222 159.207 65.3438C159.69 65.0653 160.23 64.8551 160.827 64.7131C161.423 64.571 162.031 64.4631 162.651 64.3892C163.435 64.2983 164.071 64.2244 164.56 64.1676C165.048 64.1051 165.403 64.0057 165.625 63.8693C165.847 63.733 165.957 63.5114 165.957 63.2045V63.1449C165.957 62.4006 165.747 61.8239 165.327 61.4148C164.912 61.0057 164.293 60.8011 163.469 60.8011C162.611 60.8011 161.935 60.9915 161.44 61.3722C160.952 61.7472 160.614 62.1648 160.426 62.625L158.031 62.0795C158.315 61.2841 158.73 60.642 159.276 60.1534C159.827 59.6591 160.46 59.3011 161.176 59.0795C161.892 58.8523 162.645 58.7386 163.435 58.7386C163.957 58.7386 164.511 58.8011 165.097 58.9261C165.688 59.0455 166.239 59.267 166.75 59.5909C167.267 59.9148 167.69 60.3778 168.02 60.9801C168.349 61.5767 168.514 62.3523 168.514 63.3068V72H166.026V70.2102H165.923C165.759 70.5398 165.511 70.8636 165.182 71.1818C164.852 71.5 164.429 71.7642 163.912 71.9744C163.395 72.1847 162.776 72.2898 162.054 72.2898ZM162.608 70.2443C163.313 70.2443 163.915 70.1051 164.415 69.8267C164.92 69.5483 165.304 69.1847 165.565 68.7358C165.832 68.2812 165.966 67.7955 165.966 67.2784V65.5909C165.875 65.6818 165.699 65.767 165.438 65.8466C165.182 65.9205 164.889 65.9858 164.56 66.0426C164.23 66.0937 163.909 66.142 163.597 66.1875C163.284 66.2273 163.023 66.2614 162.812 66.2898C162.318 66.3523 161.866 66.4574 161.457 66.6051C161.054 66.7528 160.73 66.9659 160.486 67.2443C160.247 67.517 160.128 67.8807 160.128 68.3352C160.128 68.9659 160.361 69.4432 160.827 69.767C161.293 70.0852 161.886 70.2443 162.608 70.2443ZM174.252 67.5597L174.235 64.4489H174.678L179.894 58.9091H182.945L176.996 65.2159H176.596L174.252 67.5597ZM171.908 72V54.5455H174.457V72H171.908ZM180.175 72L175.488 65.7784L177.244 63.9972L183.303 72H180.175ZM197.73 58.9091V60.9545H190.58V58.9091H197.73ZM192.497 55.7727H195.045V68.1562C195.045 68.6506 195.119 69.0227 195.267 69.2727C195.415 69.517 195.605 69.6847 195.838 69.7756C196.077 69.8608 196.335 69.9034 196.614 69.9034C196.818 69.9034 196.997 69.8892 197.151 69.8608C197.304 69.8324 197.423 69.8097 197.509 69.7926L197.969 71.8977C197.821 71.9545 197.611 72.0114 197.338 72.0682C197.065 72.1307 196.724 72.1648 196.315 72.1705C195.645 72.1818 195.02 72.0625 194.44 71.8125C193.861 71.5625 193.392 71.1761 193.034 70.6534C192.676 70.1307 192.497 69.4744 192.497 68.6847V55.7727ZM203.379 64.2273V72H200.83V54.5455H203.344V61.0398H203.506C203.813 60.3352 204.282 59.7756 204.913 59.3608C205.543 58.946 206.367 58.7386 207.384 58.7386C208.282 58.7386 209.066 58.9233 209.737 59.2926C210.413 59.6619 210.935 60.2131 211.305 60.946C211.68 61.6733 211.867 62.5824 211.867 63.6733V72H209.319V63.9801C209.319 63.0199 209.072 62.2756 208.577 61.7472C208.083 61.2131 207.396 60.946 206.515 60.946C205.913 60.946 205.373 61.0739 204.896 61.3295C204.424 61.5852 204.052 61.9602 203.779 62.4545C203.512 62.9432 203.379 63.5341 203.379 64.2273ZM220.91 72.2642C219.62 72.2642 218.509 71.9886 217.577 71.4375C216.651 70.8807 215.935 70.0994 215.43 69.0938C214.93 68.0824 214.68 66.8977 214.68 65.5398C214.68 64.1989 214.93 63.017 215.43 61.9943C215.935 60.9716 216.64 60.1733 217.543 59.5994C218.452 59.0256 219.515 58.7386 220.731 58.7386C221.469 58.7386 222.185 58.8608 222.879 59.1051C223.572 59.3494 224.194 59.733 224.745 60.2557C225.296 60.7784 225.731 61.4574 226.049 62.2926C226.367 63.1222 226.526 64.1307 226.526 65.3182V66.2216H216.12V64.3125H224.029C224.029 63.642 223.893 63.0483 223.62 62.5312C223.347 62.0085 222.964 61.5966 222.469 61.2955C221.981 60.9943 221.407 60.8438 220.748 60.8438C220.032 60.8438 219.407 61.0199 218.873 61.3722C218.344 61.7187 217.935 62.1733 217.646 62.7358C217.362 63.2926 217.219 63.8977 217.219 64.5511V66.0426C217.219 66.9176 217.373 67.6619 217.68 68.2756C217.992 68.8892 218.427 69.358 218.984 69.6818C219.54 70 220.191 70.1591 220.935 70.1591C221.418 70.1591 221.859 70.0909 222.256 69.9545C222.654 69.8125 222.998 69.6023 223.288 69.3239C223.577 69.0455 223.799 68.7017 223.952 68.2926L226.364 68.7273C226.171 69.4375 225.825 70.0597 225.325 70.5938C224.83 71.1222 224.208 71.5341 223.458 71.8295C222.714 72.1193 221.864 72.2642 220.91 72.2642ZM241.219 72.2642C239.952 72.2642 238.862 71.9773 237.947 71.4034C237.038 70.8239 236.339 70.0256 235.85 69.0085C235.362 67.9915 235.117 66.8267 235.117 65.5142C235.117 64.1847 235.367 63.0114 235.867 61.9943C236.367 60.9716 237.072 60.1733 237.981 59.5994C238.89 59.0256 239.961 58.7386 241.194 58.7386C242.188 58.7386 243.075 58.9233 243.853 59.2926C244.631 59.6562 245.259 60.1676 245.737 60.8267C246.219 61.4858 246.506 62.2557 246.597 63.1364H244.117C243.981 62.5227 243.668 61.9943 243.18 61.5511C242.697 61.108 242.049 60.8864 241.237 60.8864C240.526 60.8864 239.904 61.0739 239.37 61.4489C238.842 61.8182 238.43 62.3466 238.134 63.0341C237.839 63.7159 237.691 64.5227 237.691 65.4545C237.691 66.4091 237.836 67.233 238.126 67.9261C238.415 68.6193 238.825 69.1562 239.353 69.5369C239.887 69.9176 240.515 70.108 241.237 70.108C241.719 70.108 242.157 70.0199 242.549 69.8438C242.947 69.6619 243.279 69.4034 243.546 69.0682C243.819 68.733 244.009 68.3295 244.117 67.858H246.597C246.506 68.7045 246.231 69.4602 245.771 70.125C245.31 70.7898 244.694 71.3125 243.921 71.6932C243.154 72.0739 242.254 72.2642 241.219 72.2642ZM250.933 76.9091C250.553 76.9091 250.206 76.8778 249.893 76.8153C249.581 76.7585 249.348 76.696 249.195 76.6278L249.808 74.5398C250.274 74.6648 250.689 74.7188 251.053 74.7017C251.416 74.6847 251.737 74.5483 252.016 74.2926C252.3 74.0369 252.55 73.6193 252.766 73.0398L253.081 72.1705L248.291 58.9091H251.018L254.334 69.0682H254.47L257.786 58.9091H260.521L255.126 73.7472C254.876 74.429 254.558 75.0057 254.172 75.4773C253.786 75.9545 253.325 76.3125 252.791 76.5511C252.257 76.7898 251.638 76.9091 250.933 76.9091ZM267.985 72.2642C266.718 72.2642 265.627 71.9773 264.712 71.4034C263.803 70.8239 263.104 70.0256 262.616 69.0085C262.127 67.9915 261.883 66.8267 261.883 65.5142C261.883 64.1847 262.133 63.0114 262.633 61.9943C263.133 60.9716 263.837 60.1733 264.746 59.5994C265.656 59.0256 266.727 58.7386 267.96 58.7386C268.954 58.7386 269.84 58.9233 270.619 59.2926C271.397 59.6562 272.025 60.1676 272.502 60.8267C272.985 61.4858 273.272 62.2557 273.363 63.1364H270.883C270.746 62.5227 270.434 61.9943 269.945 61.5511C269.462 61.108 268.815 60.8864 268.002 60.8864C267.292 60.8864 266.67 61.0739 266.136 61.4489C265.607 61.8182 265.195 62.3466 264.9 63.0341C264.604 63.7159 264.457 64.5227 264.457 65.4545C264.457 66.4091 264.602 67.233 264.891 67.9261C265.181 68.6193 265.59 69.1562 266.119 69.5369C266.653 69.9176 267.281 70.108 268.002 70.108C268.485 70.108 268.923 70.0199 269.315 69.8438C269.712 69.6619 270.045 69.4034 270.312 69.0682C270.585 68.733 270.775 68.3295 270.883 67.858H273.363C273.272 68.7045 272.996 69.4602 272.536 70.125C272.076 70.7898 271.46 71.3125 270.687 71.6932C269.92 72.0739 269.019 72.2642 267.985 72.2642ZM278.636 54.5455V72H276.088V54.5455H278.636ZM287.707 72.2642C286.417 72.2642 285.306 71.9886 284.374 71.4375C283.448 70.8807 282.732 70.0994 282.227 69.0938C281.727 68.0824 281.477 66.8977 281.477 65.5398C281.477 64.1989 281.727 63.017 282.227 61.9943C282.732 60.9716 283.437 60.1733 284.34 59.5994C285.249 59.0256 286.312 58.7386 287.528 58.7386C288.266 58.7386 288.982 58.8608 289.675 59.1051C290.369 59.3494 290.991 59.733 291.542 60.2557C292.093 60.7784 292.528 61.4574 292.846 62.2926C293.164 63.1222 293.323 64.1307 293.323 65.3182V66.2216H282.917V64.3125H290.826C290.826 63.642 290.69 63.0483 290.417 62.5312C290.144 62.0085 289.761 61.5966 289.266 61.2955C288.778 60.9943 288.204 60.8438 287.545 60.8438C286.829 60.8438 286.204 61.0199 285.67 61.3722C285.141 61.7187 284.732 62.1733 284.442 62.7358C284.158 63.2926 284.016 63.8977 284.016 64.5511V66.0426C284.016 66.9176 284.17 67.6619 284.477 68.2756C284.789 68.8892 285.224 69.358 285.781 69.6818C286.337 70 286.988 70.1591 287.732 70.1591C288.215 70.1591 288.656 70.0909 289.053 69.9545C289.451 69.8125 289.795 69.6023 290.085 69.3239C290.374 69.0455 290.596 68.7017 290.749 68.2926L293.161 68.7273C292.968 69.4375 292.621 70.0597 292.121 70.5938C291.627 71.1222 291.005 71.5341 290.255 71.8295C289.511 72.1193 288.661 72.2642 287.707 72.2642ZM299.466 69.6136L299.338 70.5426C299.253 71.2244 299.108 71.9347 298.903 72.6733C298.705 73.4176 298.497 74.108 298.281 74.7443C298.071 75.3807 297.898 75.8864 297.761 76.2614H295.955C296.028 75.9091 296.131 75.4318 296.261 74.8295C296.392 74.233 296.52 73.5653 296.645 72.8267C296.77 72.0881 296.864 71.3352 296.926 70.5682L297.011 69.6136H299.466ZM309.135 72V58.9091H311.598V60.9886H311.734C311.973 60.2841 312.393 59.7301 312.996 59.3267C313.604 58.9176 314.291 58.7131 315.058 58.7131C315.217 58.7131 315.405 58.7187 315.621 58.7301C315.842 58.7415 316.016 58.7557 316.141 58.7727V61.2102C316.038 61.1818 315.857 61.1506 315.595 61.1165C315.334 61.0767 315.072 61.0568 314.811 61.0568C314.209 61.0568 313.672 61.1847 313.2 61.4403C312.734 61.6903 312.365 62.0398 312.092 62.4886C311.82 62.9318 311.683 63.4375 311.683 64.0057V72H309.135ZM323.519 72.2642C322.229 72.2642 321.119 71.9886 320.187 71.4375C319.261 70.8807 318.545 70.0994 318.039 69.0938C317.539 68.0824 317.289 66.8977 317.289 65.5398C317.289 64.1989 317.539 63.017 318.039 61.9943C318.545 60.9716 319.249 60.1733 320.153 59.5994C321.062 59.0256 322.124 58.7386 323.34 58.7386C324.079 58.7386 324.795 58.8608 325.488 59.1051C326.181 59.3494 326.803 59.733 327.354 60.2557C327.906 60.7784 328.34 61.4574 328.658 62.2926C328.977 63.1222 329.136 64.1307 329.136 65.3182V66.2216H318.729V64.3125H326.638C326.638 63.642 326.502 63.0483 326.229 62.5312C325.957 62.0085 325.573 61.5966 325.079 61.2955C324.59 60.9943 324.016 60.8438 323.357 60.8438C322.641 60.8438 322.016 61.0199 321.482 61.3722C320.954 61.7187 320.545 62.1733 320.255 62.7358C319.971 63.2926 319.829 63.8977 319.829 64.5511V66.0426C319.829 66.9176 319.982 67.6619 320.289 68.2756C320.602 68.8892 321.036 69.358 321.593 69.6818C322.15 70 322.8 70.1591 323.545 70.1591C324.028 70.1591 324.468 70.0909 324.866 69.9545C325.263 69.8125 325.607 69.6023 325.897 69.3239C326.187 69.0455 326.408 68.7017 326.562 68.2926L328.974 68.7273C328.781 69.4375 328.434 70.0597 327.934 70.5938C327.44 71.1222 326.817 71.5341 326.067 71.8295C325.323 72.1193 324.474 72.2642 323.519 72.2642ZM336.864 72.2557C335.807 72.2557 334.864 71.9858 334.034 71.446C333.21 70.9006 332.563 70.125 332.091 69.1193C331.625 68.108 331.392 66.8949 331.392 65.4801C331.392 64.0653 331.628 62.8551 332.099 61.8494C332.577 60.8437 333.23 60.0739 334.06 59.5398C334.889 59.0057 335.83 58.7386 336.881 58.7386C337.693 58.7386 338.347 58.875 338.841 59.1477C339.341 59.4148 339.727 59.7273 340 60.0852C340.278 60.4432 340.494 60.7585 340.648 61.0312H340.801V54.5455H343.349V72H340.861V69.9631H340.648C340.494 70.2415 340.273 70.5597 339.983 70.9176C339.699 71.2756 339.307 71.5881 338.807 71.8551C338.307 72.1222 337.659 72.2557 336.864 72.2557ZM337.426 70.0824C338.159 70.0824 338.778 69.8892 339.284 69.5028C339.795 69.1108 340.182 68.5682 340.443 67.875C340.71 67.1818 340.844 66.375 340.844 65.4545C340.844 64.5455 340.713 63.75 340.452 63.0682C340.19 62.3864 339.807 61.8551 339.301 61.4744C338.795 61.0937 338.17 60.9034 337.426 60.9034C336.659 60.9034 336.02 61.1023 335.509 61.5C334.997 61.8977 334.611 62.4403 334.349 63.1278C334.094 63.8153 333.966 64.5909 333.966 65.4545C333.966 66.3295 334.097 67.1165 334.358 67.8153C334.619 68.5142 335.006 69.0682 335.517 69.4773C336.034 69.8807 336.67 70.0824 337.426 70.0824ZM346.987 72V58.9091H349.535V72H346.987ZM348.273 56.8892C347.83 56.8892 347.45 56.7415 347.131 56.446C346.819 56.1449 346.663 55.7869 346.663 55.3722C346.663 54.9517 346.819 54.5937 347.131 54.2983C347.45 53.9972 347.83 53.8466 348.273 53.8466C348.717 53.8466 349.094 53.9972 349.407 54.2983C349.725 54.5937 349.884 54.9517 349.884 55.3722C349.884 55.7869 349.725 56.1449 349.407 56.446C349.094 56.7415 348.717 56.8892 348.273 56.8892ZM362.773 62.1051L360.463 62.5142C360.366 62.2187 360.213 61.9375 360.003 61.6705C359.798 61.4034 359.52 61.1847 359.168 61.0142C358.815 60.8437 358.375 60.7585 357.847 60.7585C357.125 60.7585 356.523 60.9205 356.04 61.2443C355.557 61.5625 355.315 61.9744 355.315 62.4801C355.315 62.9176 355.477 63.2699 355.801 63.5369C356.125 63.804 356.648 64.0227 357.369 64.1932L359.449 64.6705C360.653 64.9489 361.551 65.3778 362.142 65.9574C362.733 66.5369 363.028 67.2898 363.028 68.2159C363.028 69 362.801 69.6989 362.347 70.3125C361.898 70.9205 361.27 71.3977 360.463 71.7443C359.662 72.0909 358.733 72.2642 357.676 72.2642C356.21 72.2642 355.014 71.9517 354.088 71.3267C353.162 70.696 352.594 69.8011 352.384 68.642L354.847 68.267C355 68.9091 355.315 69.3949 355.793 69.7244C356.27 70.0483 356.892 70.2102 357.659 70.2102C358.494 70.2102 359.162 70.0369 359.662 69.6903C360.162 69.3381 360.412 68.9091 360.412 68.4034C360.412 67.9943 360.259 67.6506 359.952 67.3722C359.651 67.0937 359.188 66.8835 358.562 66.7415L356.347 66.2557C355.125 65.9773 354.222 65.5341 353.636 64.9261C353.057 64.3182 352.767 63.5483 352.767 62.6165C352.767 61.8437 352.983 61.1676 353.415 60.5881C353.847 60.0085 354.443 59.5568 355.205 59.233C355.966 58.9034 356.838 58.7386 357.821 58.7386C359.236 58.7386 360.349 59.0455 361.162 59.6591C361.974 60.267 362.511 61.0824 362.773 62.1051ZM371.344 72.2642C370.077 72.2642 368.987 71.9773 368.072 71.4034C367.163 70.8239 366.464 70.0256 365.975 69.0085C365.487 67.9915 365.242 66.8267 365.242 65.5142C365.242 64.1847 365.492 63.0114 365.992 61.9943C366.492 60.9716 367.197 60.1733 368.106 59.5994C369.015 59.0256 370.086 58.7386 371.319 58.7386C372.313 58.7386 373.2 58.9233 373.978 59.2926C374.756 59.6562 375.384 60.1676 375.862 60.8267C376.344 61.4858 376.631 62.2557 376.722 63.1364H374.242C374.106 62.5227 373.793 61.9943 373.305 61.5511C372.822 61.108 372.174 60.8864 371.362 60.8864C370.651 60.8864 370.029 61.0739 369.495 61.4489C368.967 61.8182 368.555 62.3466 368.259 63.0341C367.964 63.7159 367.816 64.5227 367.816 65.4545C367.816 66.4091 367.961 67.233 368.251 67.9261C368.54 68.6193 368.95 69.1562 369.478 69.5369C370.012 69.9176 370.64 70.108 371.362 70.108C371.844 70.108 372.282 70.0199 372.674 69.8438C373.072 69.6619 373.404 69.4034 373.671 69.0682C373.944 68.733 374.134 68.3295 374.242 67.858H376.722C376.631 68.7045 376.356 69.4602 375.896 70.125C375.435 70.7898 374.819 71.3125 374.046 71.6932C373.279 72.0739 372.379 72.2642 371.344 72.2642ZM384.962 72.2642C383.734 72.2642 382.663 71.983 381.749 71.4205C380.834 70.858 380.124 70.071 379.618 69.0597C379.112 68.0483 378.859 66.8665 378.859 65.5142C378.859 64.1562 379.112 62.9687 379.618 61.9517C380.124 60.9347 380.834 60.1449 381.749 59.5824C382.663 59.0199 383.734 58.7386 384.962 58.7386C386.189 58.7386 387.26 59.0199 388.175 59.5824C389.089 60.1449 389.8 60.9347 390.305 61.9517C390.811 62.9687 391.064 64.1562 391.064 65.5142C391.064 66.8665 390.811 68.0483 390.305 69.0597C389.8 70.071 389.089 70.858 388.175 71.4205C387.26 71.983 386.189 72.2642 384.962 72.2642ZM384.97 70.125C385.766 70.125 386.425 69.9148 386.947 69.4943C387.47 69.0739 387.857 68.5142 388.107 67.8153C388.362 67.1165 388.49 66.3466 388.49 65.5057C388.49 64.6705 388.362 63.9034 388.107 63.2045C387.857 62.5 387.47 61.9347 386.947 61.5085C386.425 61.0824 385.766 60.8693 384.97 60.8693C384.169 60.8693 383.504 61.0824 382.976 61.5085C382.453 61.9347 382.064 62.5 381.808 63.2045C381.558 63.9034 381.433 64.6705 381.433 65.5057C381.433 66.3466 381.558 67.1165 381.808 67.8153C382.064 68.5142 382.453 69.0739 382.976 69.4943C383.504 69.9148 384.169 70.125 384.97 70.125ZM404.662 58.9091L399.915 72H397.188L392.432 58.9091H395.168L398.483 68.983H398.619L401.926 58.9091H404.662ZM412.254 72.2642C410.964 72.2642 409.853 71.9886 408.921 71.4375C407.995 70.8807 407.279 70.0994 406.773 69.0938C406.273 68.0824 406.023 66.8977 406.023 65.5398C406.023 64.1989 406.273 63.017 406.773 61.9943C407.279 60.9716 407.984 60.1733 408.887 59.5994C409.796 59.0256 410.859 58.7386 412.075 58.7386C412.813 58.7386 413.529 58.8608 414.222 59.1051C414.915 59.3494 415.538 59.733 416.089 60.2557C416.64 60.7784 417.075 61.4574 417.393 62.2926C417.711 63.1222 417.87 64.1307 417.87 65.3182V66.2216H407.464V64.3125H415.373C415.373 63.642 415.237 63.0483 414.964 62.5312C414.691 62.0085 414.308 61.5966 413.813 61.2955C413.325 60.9943 412.751 60.8438 412.092 60.8438C411.376 60.8438 410.751 61.0199 410.217 61.3722C409.688 61.7187 409.279 62.1733 408.989 62.7358C408.705 63.2926 408.563 63.8977 408.563 64.5511V66.0426C408.563 66.9176 408.717 67.6619 409.023 68.2756C409.336 68.8892 409.771 69.358 410.327 69.6818C410.884 70 411.535 70.1591 412.279 70.1591C412.762 70.1591 413.202 70.0909 413.6 69.9545C413.998 69.8125 414.342 69.6023 414.631 69.3239C414.921 69.0455 415.143 68.7017 415.296 68.2926L417.708 68.7273C417.515 69.4375 417.168 70.0597 416.668 70.5938C416.174 71.1222 415.552 71.5341 414.802 71.8295C414.058 72.1193 413.208 72.2642 412.254 72.2642ZM420.697 72V58.9091H423.161V60.9886H423.297C423.536 60.2841 423.956 59.7301 424.558 59.3267C425.166 58.9176 425.854 58.7131 426.621 58.7131C426.78 58.7131 426.967 58.7187 427.183 58.7301C427.405 58.7415 427.578 58.7557 427.703 58.7727V61.2102C427.601 61.1818 427.419 61.1506 427.158 61.1165C426.896 61.0767 426.635 61.0568 426.374 61.0568C425.771 61.0568 425.234 61.1847 424.763 61.4403C424.297 61.6903 423.928 62.0398 423.655 62.4886C423.382 62.9318 423.246 63.4375 423.246 64.0057V72H420.697ZM436.464 72V54.5455H439.013V61.0312H439.166C439.314 60.7585 439.527 60.4432 439.805 60.0852C440.084 59.7273 440.47 59.4148 440.964 59.1477C441.459 58.875 442.112 58.7386 442.925 58.7386C443.982 58.7386 444.925 59.0057 445.754 59.5398C446.584 60.0739 447.234 60.8437 447.706 61.8494C448.183 62.8551 448.422 64.0653 448.422 65.4801C448.422 66.8949 448.186 68.108 447.714 69.1193C447.243 70.125 446.595 70.9006 445.771 71.446C444.947 71.9858 444.007 72.2557 442.95 72.2557C442.155 72.2557 441.504 72.1222 440.999 71.8551C440.499 71.5881 440.107 71.2756 439.822 70.9176C439.538 70.5597 439.32 70.2415 439.166 69.9631H438.953V72H436.464ZM438.962 65.4545C438.962 66.375 439.095 67.1818 439.362 67.875C439.629 68.5682 440.016 69.1108 440.521 69.5028C441.027 69.8892 441.646 70.0824 442.379 70.0824C443.141 70.0824 443.777 69.8807 444.288 69.4773C444.8 69.0682 445.186 68.5142 445.447 67.8153C445.714 67.1165 445.848 66.3295 445.848 65.4545C445.848 64.5909 445.717 63.8153 445.456 63.1278C445.2 62.4403 444.814 61.8977 444.297 61.5C443.786 61.1023 443.146 60.9034 442.379 60.9034C441.641 60.9034 441.016 61.0937 440.504 61.4744C439.999 61.8551 439.615 62.3864 439.354 63.0682C439.092 63.75 438.962 64.5455 438.962 65.4545ZM455.093 72.2898C454.263 72.2898 453.513 72.1364 452.843 71.8295C452.173 71.517 451.641 71.0653 451.249 70.4744C450.863 69.8835 450.67 69.1591 450.67 68.3011C450.67 67.5625 450.812 66.9545 451.096 66.4773C451.38 66 451.763 65.6222 452.246 65.3438C452.729 65.0653 453.269 64.8551 453.866 64.7131C454.462 64.571 455.07 64.4631 455.69 64.3892C456.474 64.2983 457.11 64.2244 457.599 64.1676C458.087 64.1051 458.442 64.0057 458.664 63.8693C458.886 63.733 458.996 63.5114 458.996 63.2045V63.1449C458.996 62.4006 458.786 61.8239 458.366 61.4148C457.951 61.0057 457.332 60.8011 456.508 60.8011C455.65 60.8011 454.974 60.9915 454.479 61.3722C453.991 61.7472 453.653 62.1648 453.465 62.625L451.07 62.0795C451.354 61.2841 451.769 60.642 452.315 60.1534C452.866 59.6591 453.499 59.3011 454.215 59.0795C454.931 58.8523 455.684 58.7386 456.474 58.7386C456.996 58.7386 457.55 58.8011 458.136 58.9261C458.727 59.0455 459.278 59.267 459.789 59.5909C460.306 59.9148 460.729 60.3778 461.059 60.9801C461.388 61.5767 461.553 62.3523 461.553 63.3068V72H459.065V70.2102H458.962C458.798 70.5398 458.55 70.8636 458.221 71.1818C457.891 71.5 457.468 71.7642 456.951 71.9744C456.434 72.1847 455.815 72.2898 455.093 72.2898ZM455.647 70.2443C456.352 70.2443 456.954 70.1051 457.454 69.8267C457.96 69.5483 458.343 69.1847 458.604 68.7358C458.871 68.2812 459.005 67.7955 459.005 67.2784V65.5909C458.914 65.6818 458.738 65.767 458.477 65.8466C458.221 65.9205 457.928 65.9858 457.599 66.0426C457.269 66.0937 456.948 66.142 456.636 66.1875C456.323 66.2273 456.062 66.2614 455.852 66.2898C455.357 66.3523 454.906 66.4574 454.496 66.6051C454.093 66.7528 453.769 66.9659 453.525 67.2443C453.286 67.517 453.167 67.8807 453.167 68.3352C453.167 68.9659 453.4 69.4432 453.866 69.767C454.332 70.0852 454.925 70.2443 455.647 70.2443ZM467.496 54.5455V72H464.947V54.5455H467.496ZM474.734 72.2898C473.904 72.2898 473.154 72.1364 472.484 71.8295C471.813 71.517 471.282 71.0653 470.89 70.4744C470.504 69.8835 470.31 69.1591 470.31 68.3011C470.31 67.5625 470.452 66.9545 470.737 66.4773C471.021 66 471.404 65.6222 471.887 65.3438C472.37 65.0653 472.91 64.8551 473.506 64.7131C474.103 64.571 474.711 64.4631 475.33 64.3892C476.114 64.2983 476.751 64.2244 477.239 64.1676C477.728 64.1051 478.083 64.0057 478.305 63.8693C478.526 63.733 478.637 63.5114 478.637 63.2045V63.1449C478.637 62.4006 478.427 61.8239 478.006 61.4148C477.592 61.0057 476.972 60.8011 476.148 60.8011C475.29 60.8011 474.614 60.9915 474.12 61.3722C473.631 61.7472 473.293 62.1648 473.106 62.625L470.711 62.0795C470.995 61.2841 471.41 60.642 471.955 60.1534C472.506 59.6591 473.14 59.3011 473.856 59.0795C474.572 58.8523 475.325 58.7386 476.114 58.7386C476.637 58.7386 477.191 58.8011 477.776 58.9261C478.367 59.0455 478.918 59.267 479.43 59.5909C479.947 59.9148 480.37 60.3778 480.7 60.9801C481.029 61.5767 481.194 62.3523 481.194 63.3068V72H478.705V70.2102H478.603C478.438 70.5398 478.191 70.8636 477.862 71.1818C477.532 71.5 477.109 71.7642 476.592 71.9744C476.075 72.1847 475.455 72.2898 474.734 72.2898ZM475.288 70.2443C475.992 70.2443 476.594 70.1051 477.094 69.8267C477.6 69.5483 477.984 69.1847 478.245 68.7358C478.512 68.2812 478.646 67.7955 478.646 67.2784V65.5909C478.555 65.6818 478.379 65.767 478.117 65.8466C477.862 65.9205 477.569 65.9858 477.239 66.0426C476.91 66.0937 476.589 66.142 476.276 66.1875C475.964 66.2273 475.702 66.2614 475.492 66.2898C474.998 66.3523 474.546 66.4574 474.137 66.6051C473.734 66.7528 473.41 66.9659 473.165 67.2443C472.927 67.517 472.808 67.8807 472.808 68.3352C472.808 68.9659 473.04 69.4432 473.506 69.767C473.972 70.0852 474.566 70.2443 475.288 70.2443ZM487.136 64.2273V72H484.588V58.9091H487.034V61.0398H487.196C487.497 60.3466 487.969 59.7898 488.611 59.3693C489.259 58.9489 490.074 58.7386 491.057 58.7386C491.949 58.7386 492.73 58.9261 493.401 59.3011C494.071 59.6705 494.591 60.2216 494.96 60.9545C495.33 61.6875 495.514 62.5937 495.514 63.6733V72H492.966V63.9801C492.966 63.0312 492.719 62.2898 492.224 61.7557C491.73 61.2159 491.051 60.946 490.188 60.946C489.597 60.946 489.071 61.0739 488.611 61.3295C488.156 61.5852 487.795 61.9602 487.528 62.4545C487.267 62.9432 487.136 63.5341 487.136 64.2273ZM504.446 72.2642C503.179 72.2642 502.088 71.9773 501.173 71.4034C500.264 70.8239 499.565 70.0256 499.077 69.0085C498.588 67.9915 498.344 66.8267 498.344 65.5142C498.344 64.1847 498.594 63.0114 499.094 61.9943C499.594 60.9716 500.298 60.1733 501.207 59.5994C502.116 59.0256 503.188 58.7386 504.42 58.7386C505.415 58.7386 506.301 58.9233 507.08 59.2926C507.858 59.6562 508.486 60.1676 508.963 60.8267C509.446 61.4858 509.733 62.2557 509.824 63.1364H507.344C507.207 62.5227 506.895 61.9943 506.406 61.5511C505.923 61.108 505.276 60.8864 504.463 60.8864C503.753 60.8864 503.131 61.0739 502.597 61.4489C502.068 61.8182 501.656 62.3466 501.361 63.0341C501.065 63.7159 500.918 64.5227 500.918 65.4545C500.918 66.4091 501.063 67.233 501.352 67.9261C501.642 68.6193 502.051 69.1562 502.58 69.5369C503.114 69.9176 503.741 70.108 504.463 70.108C504.946 70.108 505.384 70.0199 505.776 69.8438C506.173 69.6619 506.506 69.4034 506.773 69.0682C507.045 68.733 507.236 68.3295 507.344 67.858H509.824C509.733 68.7045 509.457 69.4602 508.997 70.125C508.537 70.7898 507.92 71.3125 507.148 71.6932C506.381 72.0739 505.48 72.2642 504.446 72.2642ZM518.191 72.2642C516.901 72.2642 515.79 71.9886 514.859 71.4375C513.933 70.8807 513.217 70.0994 512.711 69.0938C512.211 68.0824 511.961 66.8977 511.961 65.5398C511.961 64.1989 512.211 63.017 512.711 61.9943C513.217 60.9716 513.921 60.1733 514.825 59.5994C515.734 59.0256 516.796 58.7386 518.012 58.7386C518.751 58.7386 519.467 58.8608 520.16 59.1051C520.853 59.3494 521.475 59.733 522.026 60.2557C522.577 60.7784 523.012 61.4574 523.33 62.2926C523.648 63.1222 523.808 64.1307 523.808 65.3182V66.2216H513.401V64.3125H521.31C521.31 63.642 521.174 63.0483 520.901 62.5312C520.629 62.0085 520.245 61.5966 519.751 61.2955C519.262 60.9943 518.688 60.8438 518.029 60.8438C517.313 60.8438 516.688 61.0199 516.154 61.3722C515.626 61.7187 515.217 62.1733 514.927 62.7358C514.643 63.2926 514.501 63.8977 514.501 64.5511V66.0426C514.501 66.9176 514.654 67.6619 514.961 68.2756C515.273 68.8892 515.708 69.358 516.265 69.6818C516.822 70 517.472 70.1591 518.217 70.1591C518.7 70.1591 519.14 70.0909 519.538 69.9545C519.935 69.8125 520.279 69.6023 520.569 69.3239C520.859 69.0455 521.08 68.7017 521.234 68.2926L523.646 68.7273C523.452 69.4375 523.106 70.0597 522.606 70.5938C522.112 71.1222 521.489 71.5341 520.739 71.8295C519.995 72.1193 519.146 72.2642 518.191 72.2642Z" fill="black"/>
<path d="M21.088 47.0634L24.3427 49.5643L24.3418 65.5207L21.2647 62.6566L18.54 59.3983L16.439 55.5781L15.0494 50.659L14.57 44.6582L14.8759 39.742L15.768 35.3933L17.2122 32.1572L19.5183 28.7824L21.8472 26.1411L24.3427 23.8823L24.3427 29.4249L24.3427 29.4249L24.3427 39.9019L21.134 42.2712L17.9302 44.6368L21.088 47.0634Z" stroke="#3B4E68" stroke-width="6"/>
<path d="M47.7706 37.8122L47.7733 28.8006L47.7733 20.5593L47.7733 19.6748L46.4306 19.0114L45.3568 18.7046L44.0583 18.5548L42.7598 18.5548L41.5112 18.5548L39.5134 18.5548L37.9901 18.5548L36.5917 18.5548L35.1683 18.5548L33.7449 18.7046L32.6462 19.0114L31.9152 19.3929L31.9152 25.0484L31.9152 37.0218L31.9152 48.511M31.9153 71.4266L31.9152 48.511M44.7171 48.511L31.9152 48.511" stroke="#3B4E68" stroke-width="6"/>
<path d="M62.0735 26.4013L63.36 28.1267L64.5666 29.8385L65.5769 31.4941L66.503 33.1217L67.1765 34.4968L67.7939 36.0963L68.2709 37.5556L68.6637 39.1832L68.9444 41.0353L69.1128 43.0838L69.1128 44.7676M61.1856 63.3445L62.3497 61.9205L63.4283 60.5677L64.7099 58.7522L66.2051 56.2602L67.2731 53.9462L68.1631 51.5916L68.6541 49.502L68.9444 47.2371L69.1128 44.7676M69.1128 44.7676L65.5769 44.7676L62.3497 44.7676L59.4874 44.7676L56.4286 44.7676L54.3031 44.7676M54.303 18.4001L54.3031 44.7676M54.3031 44.7676L54.303 71.0364" stroke="#3B4E68" stroke-width="6"/>
<path d="M75.358 37.1841C76.7161 42.0138 76.8627 47.0692 75.7864 51.96C74.7101 56.8507 72.4396 61.4459 69.1505 65.3905C65.8613 69.3352 61.6414 72.5237 56.8168 74.7099C51.9922 76.8961 46.6919 78.0214 41.3253 77.9989C35.9588 77.9764 30.6696 76.8068 25.8663 74.5802C21.0631 72.3537 16.8743 69.1299 13.6234 65.1579C10.3726 61.1858 8.14676 56.5718 7.11784 51.6723C6.08892 46.7727 6.28446 41.7187 7.68935 36.9006L9.84381 37.4442C8.52848 41.9551 8.34541 46.6869 9.30874 51.2741C10.2721 55.8613 12.356 60.1812 15.3996 63.9C18.4431 67.6188 22.3649 70.6371 26.862 72.7216C31.359 74.8062 36.311 75.9013 41.3354 75.9224C46.3598 75.9434 51.3222 74.8899 55.8392 72.8431C60.3563 70.7962 64.3071 67.811 67.3866 64.1178C70.4661 60.4247 72.5917 56.1224 73.5994 51.5435C74.6071 46.9646 74.4699 42.2314 73.1983 37.7097L75.358 37.1841Z" fill="#1E1E1E"/>
<path d="M58.1977 15.5047C52.995 12.6114 47.0609 11.0579 41.0024 11.003C34.9438 10.9481 28.9784 12.3939 23.7164 15.1923L24.7972 16.9567C29.7237 14.3367 35.3089 12.9831 40.9812 13.0345C46.6535 13.0859 52.2093 14.5404 57.0802 17.2492L58.1977 15.5047Z" fill="black"/>
<circle cx="20.926" cy="18.3053" r="2.03574" fill="#1E1E1E"/>
<circle cx="16.4999" cy="22.3795" r="2.03574" fill="#1E1E1E"/>
<circle cx="12.4284" cy="27.2623" r="2.03574" fill="#1E1E1E"/>
<circle cx="9.67698" cy="32.9654" r="2.03574" fill="#1E1E1E"/>
<circle cx="61.06" cy="18.3053" r="2.03574" fill="#1E1E1E"/>
<circle cx="66.0201" cy="22.3795" r="2.03574" fill="#1E1E1E"/>
<circle cx="70.0915" cy="27.2623" r="2.03574" fill="#1E1E1E"/>
<circle cx="73.349" cy="32.9654" r="2.03574" fill="#1E1E1E"/>
</svg>
