<svg width="315" height="531" viewBox="0 0 315 531" fill="none" xmlns="http://www.w3.org/2000/svg">
<rect width="315" height="531" fill="#3B4E68"/>
<path d="M162.959 206.306H151.078C149.991 206.306 149.102 207.197 149.102 208.287V276.472C149.102 277.116 149.399 277.71 149.917 278.082L190.747 307.976C191.636 308.62 192.871 308.447 193.514 307.555L200.578 297.896C201.245 296.979 201.047 295.741 200.158 295.122L164.935 269.587V208.287C164.935 207.197 164.046 206.306 162.959 206.306ZM217.251 224.931L255.981 234.417C257.216 234.714 258.426 233.773 258.426 232.51L258.624 192.51C258.624 190.851 256.722 189.91 255.438 190.95L216.51 221.439C216.215 221.667 215.991 221.974 215.863 222.324C215.735 222.674 215.709 223.053 215.786 223.418C215.863 223.783 216.042 224.119 216.301 224.386C216.56 224.654 216.889 224.843 217.251 224.931ZM258.673 299.506L244.668 294.676C244.18 294.508 243.645 294.539 243.179 294.761C242.713 294.983 242.352 295.379 242.173 295.865C241.704 297.128 241.21 298.366 240.691 299.605C236.295 310.032 229.996 319.419 221.944 327.468C213.981 335.477 204.544 341.862 194.156 346.267C183.394 350.829 171.827 353.17 160.143 353.152C148.336 353.152 136.9 350.849 126.131 346.267C115.743 341.862 106.306 335.477 98.3428 327.468C90.3151 319.419 84.0165 310.032 79.5951 299.605C75.0702 288.808 72.752 277.211 72.7778 265.5C72.7778 253.661 75.075 242.169 79.6445 231.37C84.0412 220.943 90.3398 211.557 98.3922 203.507C106.355 195.498 115.792 189.114 126.18 184.709C136.9 180.127 148.361 177.823 160.168 177.823C171.975 177.823 183.411 180.127 194.18 184.709C204.568 189.114 214.005 195.498 221.968 203.507C224.488 206.058 226.859 208.708 229.033 211.507L243.804 199.916C224.364 175 194.106 158.975 160.119 159C100.936 159.025 53.4127 207.222 54.0055 266.59C54.5983 324.917 101.9 372 160.168 372C205.987 372 245.014 342.874 259.884 302.082C260.254 301.041 259.711 299.877 258.673 299.506Z" fill="#FEFFFF"/>
</svg>
