<svg width="76" height="94" viewBox="0 0 76 94" fill="none" xmlns="http://www.w3.org/2000/svg">
<path d="M24.699 17.9349C26.2108 17.9349 27.6607 17.0165 28.7298 15.3817C29.7988 13.7468 30.3994 11.5295 30.3994 9.21747C30.3994 6.90546 29.7988 4.68813 28.7298 3.05329C27.6607 1.41845 26.2108 0.5 24.699 0.5C23.1871 0.5 21.7372 1.41845 20.6681 3.05329C19.5991 4.68813 18.9985 6.90546 18.9985 9.21747C18.9985 11.5295 19.5991 13.7468 20.6681 15.3817C21.7372 17.0165 23.1871 17.9349 24.699 17.9349ZM14.6876 36.9136C14.8063 36.841 14.9132 36.7683 15.032 36.6957L13.0249 48.2282C12.3599 52.0602 13.013 56.1465 14.7707 59.0705L23.167 73.073L25.7797 89.0732C26.2903 92.1788 28.3567 94.0857 30.3875 93.3048C32.4183 92.5238 33.6653 89.3637 33.1546 86.2581L30.4232 69.5315C30.1975 68.1149 29.7344 66.8254 29.0931 65.7539L23.2145 55.9468L25.5065 44.051L26.6466 48.2282C27.1692 50.1533 28.1311 51.7333 29.3543 52.6777L32.5252 55.0932C34.4016 56.5279 36.6818 55.3656 37.62 52.4961C38.5582 49.6266 37.7981 46.1396 35.9217 44.7048L33.3684 42.7616L31.5514 36.0782C29.5087 28.6138 24.7346 23.7466 19.4379 23.7466C16.7302 23.7466 14.0581 24.6183 11.5879 26.2892L10.6379 26.9248C6.73068 29.5764 3.73795 34.6253 2.39597 40.8183L2.08719 42.2349C1.42214 45.286 2.50285 48.5732 4.48613 49.5903C6.46941 50.6073 8.63083 48.9546 9.29588 45.9217L9.60466 44.5051C10.2816 41.3995 11.778 38.8932 13.7256 37.5674L14.6757 36.9318L14.6876 36.9136ZM11.1248 61.4497L8.15579 72.7824L1.11337 83.5703C-0.371123 85.8404 -0.371123 89.5272 1.11337 91.7974C2.59786 94.0675 5.00867 94.0675 6.49316 91.7974L13.8087 80.5918C14.355 79.7564 14.7826 78.7575 15.0676 77.6678L16.7896 71.0934L11.9561 63.0297C11.6592 62.5393 11.386 62.0127 11.1248 61.4678V61.4497ZM65.3859 28.3596C63.9014 26.0894 61.4906 26.0894 60.0061 28.3596C58.5216 30.6298 58.5216 34.3165 60.0061 36.5867L63.0226 41.1815H45.6006C43.4986 41.1815 41.8003 43.7786 41.8003 46.9932C41.8003 50.2078 43.4986 52.8048 45.6006 52.8048H63.0226L60.0061 57.4178C58.5216 59.688 58.5216 63.3748 60.0061 65.645C61.4906 67.9151 63.9014 67.9151 65.3859 65.645L74.8866 51.1158C76.3711 48.8457 76.3711 45.1589 74.8866 42.8887L65.3859 28.3596ZM46.5507 0.5C44.9712 0.5 43.7005 2.44327 43.7005 4.85874V13.5762C43.7005 15.9917 44.9712 17.9349 46.5507 17.9349C48.1302 17.9349 49.4009 15.9917 49.4009 13.5762V4.85874C49.4009 2.44327 48.1302 0.5 46.5507 0.5ZM49.4009 28.1053C49.4009 25.6899 48.1302 23.7466 46.5507 23.7466C44.9712 23.7466 43.7005 25.6899 43.7005 28.1053V31.0112C43.7005 33.4266 44.9712 35.3699 46.5507 35.3699C48.1302 35.3699 49.4009 33.4266 49.4009 31.0112V28.1053ZM46.5507 58.6165C44.9712 58.6165 43.7005 60.5598 43.7005 62.9752V65.881C43.7005 68.2965 44.9712 70.2398 46.5507 70.2398C48.1302 70.2398 49.4009 68.2965 49.4009 65.881V62.9752C49.4009 60.5598 48.1302 58.6165 46.5507 58.6165ZM49.4009 80.4102C49.4009 77.9947 48.1302 76.0514 46.5507 76.0514C44.9712 76.0514 43.7005 77.9947 43.7005 80.4102V89.1276C43.7005 91.5431 44.9712 93.4864 46.5507 93.4864C48.1302 93.4864 49.4009 91.5431 49.4009 89.1276V80.4102Z" fill="black"/>
</svg>
