<svg width="49" height="49" viewBox="0 0 49 49" fill="none" xmlns="http://www.w3.org/2000/svg">
<path d="M25.8885 11.0609H23.1202C22.8669 11.0609 22.6597 11.2618 22.6597 11.5074V26.873C22.6597 27.0181 22.7288 27.152 22.8497 27.2357L32.3634 33.9725C32.5706 34.1176 32.8584 34.0785 33.008 33.8776L34.6541 31.7009C34.8095 31.4943 34.7634 31.2153 34.5562 31.0757L26.349 25.3213V11.5074C26.349 11.2618 26.1418 11.0609 25.8885 11.0609ZM38.539 15.2581L47.5635 17.3957C47.8513 17.4627 48.1333 17.2506 48.1333 16.966L48.1793 7.95202C48.1793 7.57807 47.7362 7.36598 47.4369 7.6004L38.3663 14.4711C38.2978 14.5225 38.2456 14.5917 38.2157 14.6706C38.1859 14.7495 38.1797 14.835 38.1977 14.9172C38.2157 14.9994 38.2573 15.075 38.3177 15.1353C38.3781 15.1956 38.4548 15.2382 38.539 15.2581ZM48.1909 32.0636L44.9275 30.9753C44.8137 30.9375 44.6892 30.9443 44.5806 30.9944C44.472 31.0444 44.3878 31.1337 44.3462 31.2432C44.2369 31.5278 44.1218 31.8069 44.0009 32.086C42.9764 34.4357 41.5088 36.5511 39.6325 38.365C37.7771 40.17 35.5782 41.6086 33.1576 42.6013C30.6501 43.6294 27.9548 44.1571 25.2324 44.153C22.4813 44.153 19.8165 43.6339 17.3072 42.6013C14.8867 41.6086 12.6877 40.17 10.8323 38.365C8.96178 36.5511 7.49414 34.4357 6.46391 32.086C5.40955 29.653 4.86939 27.0395 4.87541 24.4004C4.87541 21.7325 5.41067 19.1427 6.47543 16.7092C7.49989 14.3595 8.96753 12.2441 10.8438 10.4302C12.6992 8.62525 14.8982 7.18657 17.3187 6.19388C19.8165 5.16133 22.4871 4.64226 25.2382 4.64226C27.9893 4.64226 30.654 5.16133 33.1634 6.19388C35.5839 7.18657 37.7828 8.62525 39.6383 10.4302C40.2253 11.005 40.7778 11.6023 41.2843 12.233L44.7261 9.62086C40.1966 4.00598 33.1461 0.394816 25.2266 0.400397C11.4366 0.405978 0.363148 11.2674 0.501278 24.646C0.639409 37.7902 11.6611 48.4004 25.2382 48.4004C35.9145 48.4004 45.0081 41.8367 48.4729 32.6441C48.5592 32.4097 48.4326 32.1474 48.1909 32.0636Z" fill="black"/>
</svg>
