<svg width="72" height="72" viewBox="0 0 72 72" fill="none" xmlns="http://www.w3.org/2000/svg">
<path d="M38.0828 15.9907H33.9302C33.5504 15.9907 33.2396 16.2921 33.2396 16.6605V39.7088C33.2396 39.9265 33.3432 40.1274 33.5245 40.253L47.7951 50.3581C48.1059 50.5758 48.5375 50.5172 48.762 50.2158L51.2311 46.9507C51.4642 46.6409 51.3951 46.2223 51.0843 46.013L38.7734 37.3814V16.6605C38.7734 16.2921 38.4626 15.9907 38.0828 15.9907ZM57.0585 22.2865L70.5953 25.493C71.0269 25.5935 71.45 25.2754 71.45 24.8484L71.519 11.3275C71.519 10.7665 70.8543 10.4484 70.4053 10.8L56.7995 21.1061C56.6967 21.1832 56.6184 21.2869 56.5736 21.4053C56.5289 21.5237 56.5195 21.6519 56.5465 21.7752C56.5736 21.8985 56.636 22.0119 56.7266 22.1024C56.8171 22.1928 56.9322 22.2567 57.0585 22.2865ZM71.5363 47.4949L66.6413 45.8623C66.4706 45.8056 66.2838 45.8159 66.1209 45.891C65.9579 45.9661 65.8318 46.1 65.7693 46.2642C65.6053 46.6912 65.4326 47.1098 65.2513 47.5284C63.7146 51.053 61.5132 54.226 58.6988 56.947C55.9156 59.6544 52.6172 61.8124 48.9865 63.3014C45.2252 64.8435 41.1822 65.635 37.0986 65.6288C32.972 65.6288 28.9748 64.8502 25.2107 63.3014C21.58 61.8124 18.2816 59.6544 15.4984 56.947C12.6927 54.226 10.4912 51.053 8.94587 47.5284C7.36433 43.8789 6.55408 39.9587 6.56312 36C6.56312 31.9981 7.366 28.1135 8.96314 24.4633C10.4998 20.9386 12.7013 17.7656 15.5157 15.0447C18.2989 12.3373 21.5972 10.1793 25.228 8.69024C28.9748 7.1414 32.9806 6.3628 37.1072 6.3628C41.2339 6.3628 45.231 7.1414 48.9951 8.69024C52.6259 10.1793 55.9242 12.3373 58.7074 15.0447C59.588 15.907 60.4168 16.8028 61.1765 17.7488L66.3391 13.8307C59.5448 5.40838 48.9692 -0.0083624 37.09 9.69103e-06C16.4049 0.00838178 -0.205278 16.3005 0.00191753 36.3684C0.209113 56.0847 16.7416 72 37.1072 72C53.1218 72 66.7621 62.1544 71.9593 48.3656C72.0888 48.014 71.8989 47.6205 71.5363 47.4949Z" fill="black"/>
</svg>
