<svg width="41" height="40" viewBox="0 0 41 40" fill="none" xmlns="http://www.w3.org/2000/svg">
<rect x="0.332031" y="0.593018" width="40.2204" height="38.8139" rx="19.407" fill="#495D78"/>
<path fill-rule="evenodd" clip-rule="evenodd" d="M21.9709 31.7746L21.9584 31.7769L21.8776 31.8167L21.8549 31.8212L21.839 31.8167L21.7582 31.7769C21.7461 31.7731 21.737 31.775 21.7309 31.7825L21.7263 31.7939L21.707 32.2808L21.7127 32.3035L21.7241 32.3183L21.8424 32.4025L21.8594 32.407L21.8731 32.4025L21.9914 32.3183L22.005 32.3001L22.0096 32.2808L21.9903 31.7951C21.9872 31.7829 21.9808 31.7761 21.9709 31.7746ZM22.2724 31.646L22.2576 31.6483L22.0471 31.7541L22.0358 31.7655L22.0323 31.778L22.0528 32.2671L22.0585 32.2808L22.0676 32.2887L22.2962 32.3945C22.3107 32.3983 22.3217 32.3953 22.3292 32.3854L22.3338 32.3695L22.2951 31.6711C22.2913 31.6574 22.2837 31.6491 22.2724 31.646ZM21.459 31.6483C21.454 31.6453 21.448 31.6443 21.4423 31.6456C21.4366 31.6468 21.4316 31.6503 21.4283 31.6551L21.4215 31.6711L21.3828 32.3695C21.3836 32.3832 21.39 32.3923 21.4022 32.3968L21.4192 32.3945L21.6479 32.2887L21.6592 32.2796L21.6638 32.2671L21.6831 31.778L21.6797 31.7643L21.6683 31.753L21.459 31.6483Z" fill="white"/>
<path fill-rule="evenodd" clip-rule="evenodd" d="M21.2957 7.59302C22.115 7.59237 22.9072 7.88649 23.5275 8.42164C24.1479 8.9568 24.555 9.69727 24.6745 10.5078C24.794 11.3183 24.618 12.1448 24.1785 12.8362C23.739 13.5276 23.0654 14.0379 22.2808 14.2737L22.0875 14.326L24.8482 17.4827L26.9231 18.5201C27.1828 18.6498 27.3831 18.8738 27.483 19.1464C27.5829 19.419 27.5748 19.7194 27.4604 19.9862C27.346 20.253 27.1339 20.4659 26.8675 20.5814C26.6012 20.6969 26.3008 20.7062 26.0278 20.6075L25.9061 20.554L23.8313 19.5166C23.6334 19.4177 23.451 19.2905 23.2898 19.1389L23.1363 18.9797L21.9783 17.6567L21.2275 20.6575C21.1595 20.9305 21.0415 21.1886 20.8794 21.4185L20.7543 21.58L22.9474 23.5855C23.2297 23.8432 23.4426 24.1679 23.5662 24.5297L23.6197 24.7117L24.4592 28.0685H24.7083C24.9983 28.0688 25.2771 28.1798 25.4879 28.3789C25.6988 28.5779 25.8256 28.8499 25.8426 29.1394C25.8596 29.4288 25.7655 29.7138 25.5794 29.9361C25.3933 30.1585 25.1293 30.3013 24.8414 30.3356L24.7083 30.3436H23.6595C23.4048 30.3435 23.1561 30.2658 22.9467 30.1206C22.7373 29.9755 22.5773 29.7699 22.4879 29.5314L22.4458 29.3949L21.4129 25.2645L17.9889 22.134C17.5588 21.9152 17.2094 21.5653 16.9913 21.1349C16.7731 20.7044 16.6974 20.2158 16.7752 19.7395L16.8139 19.5541L17.3974 17.2199L17.03 17.4815L15.4454 20.1229C15.2962 20.372 15.0574 20.5546 14.7779 20.6333C14.4983 20.712 14.1993 20.6809 13.942 20.5462C13.6847 20.4115 13.4887 20.1835 13.3941 19.909C13.2995 19.6344 13.3135 19.3341 13.4332 19.0695L13.4946 18.9512L15.0792 16.311C15.2074 16.0971 15.37 15.9057 15.5603 15.7445L15.7082 15.6308L18.8501 13.3842C18.3826 12.9032 18.0672 12.2952 17.9433 11.636C17.8194 10.9769 17.8925 10.2958 18.1534 9.67796C18.4143 9.06009 18.8515 8.53282 19.4104 8.162C19.9693 7.79119 20.625 7.59329 21.2957 7.59302ZM16.8025 23.7277C16.8937 23.4517 17.0872 23.221 17.3431 23.0832C17.5991 22.9453 17.8981 22.9107 18.1788 22.9864C18.4595 23.0621 18.7005 23.2424 18.8525 23.4902C19.0044 23.7381 19.0556 24.0347 18.9957 24.3192L18.9615 24.4466L18.4769 25.8981C18.3879 26.1658 18.2498 26.4146 18.0697 26.6318L17.9275 26.7876L16.0426 28.6725C16.1651 28.9024 16.205 29.1673 16.1557 29.423C16.1064 29.6787 15.9708 29.9098 15.7716 30.0776C15.5724 30.2453 15.3216 30.3397 15.0612 30.3448C14.8008 30.35 14.5466 30.2656 14.3409 30.1058L14.234 30.0103L13.6732 29.4495C13.4754 29.2517 13.3566 28.9885 13.339 28.7093C13.3214 28.4302 13.4062 28.1542 13.5776 27.9331L13.6732 27.8251L16.3191 25.1792L16.8025 23.7277ZM21.2957 9.86807C20.994 9.86807 20.7047 9.98792 20.4914 10.2012C20.2781 10.4146 20.1582 10.7039 20.1582 11.0056C20.1582 11.3073 20.2781 11.5966 20.4914 11.81C20.7047 12.0233 20.994 12.1431 21.2957 12.1431C21.5974 12.1431 21.8868 12.0233 22.1001 11.81C22.3134 11.5966 22.4333 11.3073 22.4333 11.0056C22.4333 10.7039 22.3134 10.4146 22.1001 10.2012C21.8868 9.98792 21.5974 9.86807 21.2957 9.86807Z" fill="white"/>
</svg>
