<svg width="40" height="40" viewBox="0 0 40 40" fill="none" xmlns="http://www.w3.org/2000/svg">
<rect width="40" height="40" rx="20" fill="#495D78"/>
<path d="M23.8229 20C24.9479 20.0372 25.8681 20.5134 26.5833 21.4286H27.9792C28.5486 21.4286 29.0278 21.2779 29.4167 20.9766C29.8056 20.6752 30 20.2344 30 19.654C30 17.0275 29.5694 15.7143 28.7083 15.7143C28.6667 15.7143 28.5156 15.7924 28.2552 15.9487C27.9948 16.1049 27.6562 16.263 27.2396 16.423C26.8229 16.583 26.4097 16.6629 26 16.6629C25.5347 16.6629 25.0729 16.5774 24.6146 16.4062C24.6493 16.6815 24.6667 16.9271 24.6667 17.1429C24.6667 18.1771 24.3854 19.1295 23.8229 20ZM12.6667 27.1094C12.6667 28.0022 12.9201 28.7072 13.4271 29.2243C13.934 29.7414 14.6076 30 15.4479 30H24.5521C25.3924 30 26.066 29.7414 26.5729 29.2243C27.0799 28.7072 27.3333 28.0022 27.3333 27.1094C27.3333 26.715 27.3212 26.33 27.2969 25.9542C27.2726 25.5785 27.224 25.173 27.151 24.7377C27.0781 24.3025 26.9861 23.8988 26.875 23.5268C26.7639 23.1548 26.6146 22.792 26.4271 22.4386C26.2396 22.0852 26.0243 21.7839 25.7812 21.5346C25.5382 21.2853 25.2413 21.0863 24.8906 20.9375C24.5399 20.7887 24.1528 20.7143 23.7292 20.7143C23.6597 20.7143 23.5104 20.7943 23.2812 20.9542C23.0521 21.1142 22.7986 21.2928 22.5208 21.49C22.2431 21.6871 21.8715 21.8657 21.4062 22.0257C20.941 22.1856 20.4722 22.2656 20 22.2656C19.5278 22.2656 19.059 22.1856 18.5938 22.0257C18.1285 21.8657 17.7569 21.6871 17.4792 21.49C17.2014 21.2928 16.9479 21.1142 16.7188 20.9542C16.4896 20.7943 16.3403 20.7143 16.2708 20.7143C15.8472 20.7143 15.4601 20.7887 15.1094 20.9375C14.7587 21.0863 14.4618 21.2853 14.2188 21.5346C13.9757 21.7839 13.7604 22.0852 13.5729 22.4386C13.3854 22.792 13.2361 23.1548 13.125 23.5268C13.0139 23.8988 12.9219 24.3025 12.849 24.7377C12.776 25.173 12.7274 25.5785 12.7031 25.9542C12.6788 26.33 12.6667 26.715 12.6667 27.1094ZM23.3333 12.8571C23.3333 13.6458 23.5938 14.3192 24.1146 14.8772C24.6354 15.4353 25.2639 15.7143 26 15.7143C26.7361 15.7143 27.3646 15.4353 27.8854 14.8772C28.4062 14.3192 28.6667 13.6458 28.6667 12.8571C28.6667 12.0685 28.4062 11.3951 27.8854 10.8371C27.3646 10.279 26.7361 10 26 10C25.2639 10 24.6354 10.279 24.1146 10.8371C23.5938 11.3951 23.3333 12.0685 23.3333 12.8571ZM16 17.1429C16 18.3259 16.3906 19.3359 17.1719 20.173C17.9531 21.01 18.8958 21.4286 20 21.4286C21.1042 21.4286 22.0469 21.01 22.8281 20.173C23.6094 19.3359 24 18.3259 24 17.1429C24 15.9598 23.6094 14.9498 22.8281 14.1127C22.0469 13.2757 21.1042 12.8571 20 12.8571C18.8958 12.8571 17.9531 13.2757 17.1719 14.1127C16.3906 14.9498 16 15.9598 16 17.1429ZM10 19.654C10 20.2344 10.1944 20.6752 10.5833 20.9766C10.9722 21.2779 11.4514 21.4286 12.0208 21.4286H13.4167C14.1319 20.5134 15.0521 20.0372 16.1771 20C15.6146 19.1295 15.3333 18.1771 15.3333 17.1429C15.3333 16.9271 15.3507 16.6815 15.3854 16.4062C14.9271 16.5774 14.4653 16.6629 14 16.6629C13.5903 16.6629 13.1771 16.583 12.7604 16.423C12.3438 16.263 12.0052 16.1049 11.7448 15.9487C11.4844 15.7924 11.3333 15.7143 11.2917 15.7143C10.4306 15.7143 10 17.0275 10 19.654ZM11.3333 12.8571C11.3333 13.6458 11.5938 14.3192 12.1146 14.8772C12.6354 15.4353 13.2639 15.7143 14 15.7143C14.7361 15.7143 15.3646 15.4353 15.8854 14.8772C16.4062 14.3192 16.6667 13.6458 16.6667 12.8571C16.6667 12.0685 16.4062 11.3951 15.8854 10.8371C15.3646 10.279 14.7361 10 14 10C13.2639 10 12.6354 10.279 12.1146 10.8371C11.5938 11.3951 11.3333 12.0685 11.3333 12.8571Z" fill="white"/>
</svg>
