<svg width="48" height="48" viewBox="0 0 48 48" fill="none" xmlns="http://www.w3.org/2000/svg">
<path fill-rule="evenodd" clip-rule="evenodd" d="M48 24C48 37.2552 37.2552 48 24 48C10.7448 48 0 37.2552 0 24C0 10.7448 10.7448 0 24 0C37.2552 0 48 10.7448 48 24ZM24 43.2C29.0922 43.2 33.9758 41.1772 37.5765 37.5765C41.1772 33.9758 43.2 29.0922 43.2 24C43.2 18.9078 41.1772 14.0242 37.5765 10.4236C33.9758 6.82285 29.0922 4.8 24 4.8C18.9078 4.8 14.0242 6.82285 10.4236 10.4236C6.82285 14.0242 4.8 18.9078 4.8 24C4.8 29.0922 6.82285 33.9758 10.4236 37.5765C14.0242 41.1772 18.9078 43.2 24 43.2Z" fill="black"/>
<path fill-rule="evenodd" clip-rule="evenodd" d="M40.097 9.10308C40.5469 9.55314 40.7997 10.1635 40.7997 10.7999C40.7997 11.4363 40.5469 12.0466 40.097 12.4967L12.497 40.0967C12.0444 40.5339 11.4381 40.7758 10.8088 40.7703C10.1796 40.7648 9.57761 40.5124 9.13263 40.0674C8.68765 39.6225 8.43525 39.0205 8.42978 38.3912C8.42431 37.762 8.66622 37.1557 9.1034 36.7031L36.7034 9.10308C37.1535 8.65315 37.7638 8.40039 38.4002 8.40039C39.0366 8.40039 39.6469 8.65315 40.097 9.10308Z" fill="black"/>
</svg>
