<svg width="49" height="48" viewBox="0 0 49 48" fill="none" xmlns="http://www.w3.org/2000/svg">
<path d="M24.433 0C11.185 0 0.457031 10.752 0.457031 24C0.457031 37.248 11.185 48 24.433 48C37.705 48 48.457 37.248 48.457 24C48.457 10.752 37.705 0 24.433 0ZM24.457 43.2C13.849 43.2 5.25703 34.608 5.25703 24C5.25703 13.392 13.849 4.8 24.457 4.8C35.065 4.8 43.657 13.392 43.657 24C43.657 34.608 35.065 43.2 24.457 43.2Z" fill="black"/>
<path d="M25.6586 12H22.0586V26.4L34.6586 33.96L36.4586 31.008L25.6586 24.6V12Z" fill="black"/>
</svg>
