<svg width="20" height="21" viewBox="0 0 20 21" fill="none" xmlns="http://www.w3.org/2000/svg">
<path d="M16.0257 20.4998C15.1541 20.4998 13.9297 20.1846 12.0963 19.1605C9.86683 17.9105 8.14237 16.7565 5.92495 14.5453C3.78701 12.4091 2.74662 11.0261 1.29052 8.37691C-0.354456 5.3858 -0.074042 3.81793 0.239415 3.14783C0.612706 2.34693 1.16371 1.86791 1.87591 1.39245C2.28043 1.12747 2.70852 0.900313 3.15474 0.713874C3.1994 0.694677 3.24092 0.676374 3.27798 0.659856C3.49901 0.560301 3.8339 0.409853 4.25809 0.570569C4.54119 0.67682 4.79392 0.894233 5.18953 1.28486C6.00086 2.08487 7.10957 3.86659 7.51858 4.7416C7.79319 5.33134 7.97493 5.72063 7.97537 6.15724C7.97537 6.66841 7.71818 7.06261 7.40606 7.48806C7.34756 7.56797 7.28952 7.64431 7.23325 7.71842C6.89345 8.16486 6.81888 8.29388 6.868 8.52424C6.96758 8.98719 7.71014 10.3653 8.93048 11.5828C10.1508 12.8002 11.4895 13.4957 11.9543 13.5948C12.1945 13.6462 12.3263 13.5685 12.7871 13.2167C12.8532 13.1663 12.921 13.114 12.992 13.0618C13.468 12.7078 13.844 12.4573 14.3432 12.4573H14.3459C14.7803 12.4573 15.1523 12.6457 15.7685 12.9564C16.5722 13.3618 18.4079 14.456 19.2129 15.2681C19.6045 15.6627 19.8229 15.9145 19.9296 16.1971C20.0903 16.6225 19.939 16.956 19.8403 17.1792C19.8238 17.2163 19.8055 17.2569 19.7863 17.302C19.5983 17.7474 19.3698 18.1745 19.1035 18.5779C18.6289 19.2878 18.148 19.8373 17.3451 20.211C16.9329 20.406 16.4817 20.5047 16.0257 20.4998Z" fill="white"/>
</svg>
