<svg width="81" height="82" viewBox="0 0 81 82" fill="none" xmlns="http://www.w3.org/2000/svg">
<path d="M18.2036 3.97583V5.45392C18.2036 21.5832 24.2403 35.4568 33.4454 40.5897V41.5538C24.2402 46.6867 18.2034 60.5603 18.2034 76.6898V78.168H63.5679V76.6898C63.5679 60.4657 57.429 46.5878 48.1383 41.5389V40.6046C57.4283 35.5552 63.5679 21.6772 63.5679 5.45376V3.97583H18.2031H18.2036ZM21.1995 6.93186H60.5723C60.1804 22.1898 53.8104 34.7001 46.0274 38.3994L45.1821 38.8V43.3485L46.0276 43.7487C53.8101 47.448 60.1798 59.9547 60.5723 75.2115H21.1995C21.588 60.0402 27.8638 47.5136 35.5762 43.7389L36.4068 43.3336V38.8099L35.5762 38.4046C27.8641 34.6299 21.5879 22.1032 21.1995 6.93186ZM55.0005 20.5571C45.8869 24.9567 35.3001 24.9615 26.9097 21.2049C29.228 29.2583 33.8415 34.9903 39.2695 35.9376C39.0162 36.272 38.879 36.68 38.8787 37.0994C38.8787 38.1689 39.7469 39.0374 40.8167 39.0374C41.8864 39.0374 42.7547 38.1689 42.7547 37.0994C42.7547 36.6691 42.6112 36.2739 42.374 35.9525C47.9785 35.0222 52.7344 28.9803 55.0005 20.5571ZM40.8167 41.4156C39.7469 41.4156 38.8787 42.2838 38.8787 43.3535C38.8787 44.4233 39.7469 45.2915 40.8167 45.2915C41.8864 45.2915 42.7547 44.4233 42.7547 43.3535C42.7547 42.2838 41.8864 41.4156 40.8167 41.4156ZM40.8167 47.6298C39.7469 47.6298 38.8787 48.4983 38.8787 49.5678C38.8787 50.6377 39.7469 51.5057 40.8167 51.5057C41.8864 51.5057 42.7547 50.6377 42.7547 49.5678C42.7547 48.4983 41.8864 47.6298 40.8167 47.6298ZM40.8167 53.884C39.7469 53.884 38.8787 54.7522 38.8787 55.822C38.8787 56.8915 39.7469 57.76 40.8167 57.76C41.8864 57.76 42.7547 56.8915 42.7547 55.822C42.7547 54.7522 41.8864 53.884 40.8167 53.884ZM40.8365 60.1973C37.1646 60.2416 33.5291 64.2742 28.8426 72.1663H53.0477C48.2188 64.0975 44.5084 60.153 40.8365 60.1973Z" fill="black"/>
</svg>
