<svg width="49" height="48" viewBox="0 0 49 48" fill="none" xmlns="http://www.w3.org/2000/svg">
<path d="M4.96964 23.4456C4.97528 20.7122 5.49851 18.01 6.50596 15.5113C7.51342 13.0126 8.98301 10.7722 10.8211 8.9328L16.138 14.808V0H2.68316L7.64883 5.4288C4.49645 8.6535 2.25514 12.8088 1.19293 17.3977C0.130708 21.9867 0.292539 26.8151 1.65907 31.3055C3.0256 35.7959 5.53898 39.7584 8.89867 42.719C12.2584 45.6796 16.3221 47.513 20.6041 48V43.0152C16.2812 42.4004 12.3099 40.0748 9.43254 36.4732C6.55515 32.8715 4.96865 28.2404 4.96964 23.4456ZM48.4999 24.6792C48.5144 18.5599 46.4681 12.6515 42.7558 8.09405C39.0435 3.53662 33.9284 0.653144 28.3973 0V4.9848C32.73 5.6268 36.7035 7.97746 39.5791 11.5999C42.4548 15.2223 44.037 19.87 44.0317 24.6792C44.0278 27.3947 43.5048 30.0789 42.4967 32.5576C41.4886 35.0364 40.018 37.2542 38.1802 39.0672L32.7608 33.192V48H46.2658L41.3525 42.5712C43.6054 40.296 45.404 37.5308 46.6343 34.4509C47.8647 31.3709 48.5 28.0434 48.4999 24.6792Z" fill="black"/>
<path d="M24.8681 33.3552L23.6922 32.1839C19.5098 28.0439 16.7463 25.3117 16.7463 21.9605C16.7405 21.3184 16.852 20.6814 17.0744 20.0869C17.2968 19.4924 17.6257 18.9523 18.0416 18.4982C18.4576 18.0441 18.9524 17.6852 19.497 17.4424C20.0416 17.1996 20.6251 17.0778 21.2134 17.0842C21.9089 17.0895 22.5952 17.2576 23.226 17.5772C23.8569 17.8967 24.4176 18.3604 24.8703 18.9367C25.3227 18.3607 25.883 17.8972 26.5135 17.5777C27.144 17.2581 27.8299 17.0898 28.525 17.0842C29.1132 17.0778 29.6967 17.1996 30.2413 17.4424C30.7859 17.6852 31.2807 18.0441 31.6967 18.4982C32.1127 18.9523 32.4415 19.4924 32.6639 20.0869C32.8863 20.6814 32.9979 21.3184 32.992 21.9605C32.992 25.3117 30.2308 28.0439 26.0462 32.1935L24.8681 33.3552Z" fill="black"/>
</svg>
